<?xml version="1.0" encoding="iso-8859-1"?>
<!-- Generator: Adobe Illustrator 19.0.0, SVG Export Plug-In . SVG Version: 6.00 Build 0)  -->
<svg version="1.1" id="Capa_1" xmlns="http://www.w3.org/2000/svg" xmlns:xlink="http://www.w3.org/1999/xlink" x="0px" y="0px"
	 viewBox="0 0 512 512" style="enable-background:new 0 0 512 512;" xml:space="preserve">
<g>
	<g>
		<path style="fill:#8A8895;" d="M376,0H136c-22.055,0-40,17.945-40,40v172.008c0,2.875,0.117,5.758,0.359,8.633l20.008,240.008
			C118.758,489.445,143.273,512,172.164,512h174.43c29.711,0,54.273-23.234,55.906-52.891l13.336-239.984
			c0.109-1.93,0.164-3.867,0.164-5.789V40C416,17.945,398.055,0,376,0z"/>
	</g>
	<g>
		<path style="fill:#5C546A;" d="M376,0h-16v510.315c23.371-5.762,41.121-26.164,42.5-51.206l13.336-239.984
			c0.109-1.93,0.164-3.867,0.164-5.789V40C416,17.945,398.055,0,376,0z"/>
	</g>
	<g>
		<path style="fill:#5C546A;" d="M152,0h-16c-22.055,0-40,17.945-40,40v172.008c0,2.875,0.117,5.758,0.359,8.633l20.008,240.008
			c1.805,21.747,16.236,39.917,35.633,47.519V0z"/>
	</g>
	<g>
		<g>
			<path style="fill:#5C546A;" d="M336,488H176c-4.422,0-8-3.578-8-8s3.578-8,8-8h160c4.422,0,8,3.578,8,8S340.422,488,336,488z"/>
		</g>
	</g>
	<g>
		<path style="fill:#D7DBE0;" d="M352,56H160c-13.255,0-24,10.745-24,24v144c0,8.837,7.163,16,16,16h208c8.837,0,16-7.163,16-16V80
			C376,66.745,365.255,56,352,56z"/>
	</g>
	<g>
		<path style="fill:#FFFFFF;" d="M352,72H160c-4.418,0-8,3.582-8,8v80c0,4.418,3.582,8,8,8h192c4.418,0,8-3.582,8-8V80
			C360,75.582,356.418,72,352,72z"/>
	</g>
	<g>
		<g>
			<path style="fill:#5C546A;" d="M240,136c-4.422,0-8-3.578-8-8v-16c0-4.422,3.578-8,8-8s8,3.578,8,8v16
				C248,132.422,244.422,136,240,136z"/>
		</g>
	</g>
	<g>
		<g>
			<path style="fill:#5C546A;" d="M208,136c-4.422,0-8-3.578-8-8v-16c0-4.422,3.578-8,8-8s8,3.578,8,8v16
				C216,132.422,212.422,136,208,136z"/>
		</g>
	</g>
	<g>
		<g>
			<path style="fill:#5C546A;" d="M272,136c-4.422,0-8-3.578-8-8v-16c0-4.422,3.578-8,8-8s8,3.578,8,8v16
				C280,132.422,276.422,136,272,136z"/>
		</g>
	</g>
	<g>
		<g>
			<path style="fill:#5C546A;" d="M304,136c-4.422,0-8-3.578-8-8v-16c0-4.422,3.578-8,8-8s8,3.578,8,8v16
				C312,132.422,308.422,136,304,136z"/>
		</g>
	</g>
	<g>
		<path style="fill:#5C546A;" d="M208,304h-32c-4.418,0-8-3.582-8-8v-16c0-4.418,3.582-8,8-8h32c4.418,0,8,3.582,8,8v16
			C216,300.418,212.418,304,208,304z"/>
	</g>
	<g>
		<path style="fill:#5C546A;" d="M272,304h-32c-4.418,0-8-3.582-8-8v-16c0-4.418,3.582-8,8-8h32c4.418,0,8,3.582,8,8v16
			C280,300.418,276.418,304,272,304z"/>
	</g>
	<g>
		<path style="fill:#5C546A;" d="M336,304h-32c-4.418,0-8-3.582-8-8v-16c0-4.418,3.582-8,8-8h32c4.418,0,8,3.582,8,8v16
			C344,300.418,340.418,304,336,304z"/>
	</g>
	<g>
		<path style="fill:#5C546A;" d="M208,352h-32c-4.418,0-8-3.582-8-8v-16c0-4.418,3.582-8,8-8h32c4.418,0,8,3.582,8,8v16
			C216,348.418,212.418,352,208,352z"/>
	</g>
	<g>
		<path style="fill:#5C546A;" d="M272,352h-32c-4.418,0-8-3.582-8-8v-16c0-4.418,3.582-8,8-8h32c4.418,0,8,3.582,8,8v16
			C280,348.418,276.418,352,272,352z"/>
	</g>
	<g>
		<path style="fill:#5C546A;" d="M336,352h-32c-4.418,0-8-3.582-8-8v-16c0-4.418,3.582-8,8-8h32c4.418,0,8,3.582,8,8v16
			C344,348.418,340.418,352,336,352z"/>
	</g>
	<g>
		<path style="fill:#5C546A;" d="M208,400h-32c-4.418,0-8-3.582-8-8v-16c0-4.418,3.582-8,8-8h32c4.418,0,8,3.582,8,8v16
			C216,396.418,212.418,400,208,400z"/>
	</g>
	<g>
		<path style="fill:#5C546A;" d="M272,400h-32c-4.418,0-8-3.582-8-8v-16c0-4.418,3.582-8,8-8h32c4.418,0,8,3.582,8,8v16
			C280,396.418,276.418,400,272,400z"/>
	</g>
	<g>
		<path style="fill:#5C546A;" d="M336,400h-32c-4.418,0-8-3.582-8-8v-16c0-4.418,3.582-8,8-8h32c4.418,0,8,3.582,8,8v16
			C344,396.418,340.418,400,336,400z"/>
	</g>
	<g>
		<path style="fill:#FF4F19;" d="M208,448h-32c-4.418,0-8-3.582-8-8v-16c0-4.418,3.582-8,8-8h32c4.418,0,8,3.582,8,8v16
			C216,444.418,212.418,448,208,448z"/>
	</g>
	<g>
		<path style="fill:#FFD100;" d="M272,448h-32c-4.418,0-8-3.582-8-8v-16c0-4.418,3.582-8,8-8h32c4.418,0,8,3.582,8,8v16
			C280,444.418,276.418,448,272,448z"/>
	</g>
	<g>
		<path style="fill:#73D14F;" d="M336,448h-32c-4.418,0-8-3.582-8-8v-16c0-4.418,3.582-8,8-8h32c4.418,0,8,3.582,8,8v16
			C344,444.418,340.418,448,336,448z"/>
	</g>
	<g>
		<path style="fill:#B8BAC0;" d="M288,184h-64c-4.418,0-8,3.582-8,8v24c0,4.418,3.582,8,8,8h64c4.418,0,8-3.582,8-8v-24
			C296,187.582,292.418,184,288,184z"/>
	</g>
	<g>
		<path style="fill:#B8BAC0;" d="M352,184h-32c-4.418,0-8,3.582-8,8v24c0,4.418,3.582,8,8,8h32c4.418,0,8-3.582,8-8v-24
			C360,187.582,356.418,184,352,184z"/>
	</g>
	<g>
		<path style="fill:#B8BAC0;" d="M192,184h-32c-4.418,0-8,3.582-8,8v24c0,4.418,3.582,8,8,8h32c4.418,0,8-3.582,8-8v-24
			C200,187.582,196.418,184,192,184z"/>
	</g>
</g>
<g>
</g>
<g>
</g>
<g>
</g>
<g>
</g>
<g>
</g>
<g>
</g>
<g>
</g>
<g>
</g>
<g>
</g>
<g>
</g>
<g>
</g>
<g>
</g>
<g>
</g>
<g>
</g>
<g>
</g>
</svg>
