<?xml version="1.0" encoding="iso-8859-1"?>
<!-- Generator: Adobe Illustrator 19.0.0, SVG Export Plug-In . SVG Version: 6.00 Build 0)  -->
<svg version="1.1" id="Layer_1" xmlns="http://www.w3.org/2000/svg" xmlns:xlink="http://www.w3.org/1999/xlink" x="0px" y="0px"
	 viewBox="0 0 299.028 299.028" style="enable-background:new 0 0 299.028 299.028;" xml:space="preserve">
<g id="XMLID_1282_">
	<g>
		<g>
			<path d="M148.275,139.71c-1.257,0.212-2.545,0.329-3.861,0.329h-6.385c-1.164,3.155-3.188,6.017-5.99,8.19v98.869
				c0,4.483,3.635,8.118,8.118,8.118h41.503l0.001-16.236h-33.386V139.71z"/>
			<path d="M290.91,3.182H140.157c-4.483,0-8.118,3.635-8.118,8.118v54.906h12.375c1.316,0,2.604,0.116,3.861,0.329V19.418h134.517
				v219.562h-21.965l0.046,16.236h30.037c4.483,0,8.118-3.635,8.118-8.118V11.3C299.028,6.816,295.394,3.182,290.91,3.182z"/>
			<path d="M234.216,80.32h-25.91c-8.031,0-14.53,6.51-14.53,14.53v9.206l7.453-0.874l20.214-10.598l-21.311,21.176l-32.588,3.823
				c-5.693,0.668-9.766,5.824-9.098,11.516c0.671,5.716,5.85,9.765,11.516,9.098l36.15-4.241c2.308-0.271,4.458-1.307,6.106-2.946
				l23.856-23.704l-16.541,31.065c-2.891,5.43-7.834,5.378-12.211,5.891l-13.545,1.589l-0.226,115.614
				c-0.001,6.878,5.575,12.454,12.452,12.455c0.001,0,0.001,0,0.001,0c6.877,0,12.453-5.575,12.454-12.452l0.007-92.071h5.372
				c0,0.012-0.002,0.024-0.002,0.036l0.261,92.069c0.019,6.866,5.591,12.418,12.453,12.418c0.012,0,0.024,0,0.036,0
				c6.878-0.02,12.438-5.611,12.419-12.489L248.746,94.85C248.746,86.825,242.241,80.32,234.216,80.32z"/>
			<path d="M221.148,73.012c5.003,0,9.602-1.713,13.256-4.577c5.022-3.938,8.253-10.055,8.253-16.932
				c0-11.879-9.629-21.508-21.509-21.508c-11.879,0-21.509,9.629-21.509,21.508c0,6.879,3.234,13,8.26,16.937
				C211.551,71.301,216.148,73.012,221.148,73.012z"/>
			<path d="M128.977,128.147h15.437c1.257,0,2.461-0.215,3.589-0.595c0.094-6.264,3.014-11.984,7.659-15.767v-22.44
				c0-6.213-5.036-11.248-11.248-11.248H116.86c-6.213,0-11.248,5.036-11.248,11.248v27.554c0,4.573,2.734,8.501,6.652,10.26
				L101.289,134c-0.121-0.11-0.237-0.226-0.356-0.339l-0.086-17.064c-0.033-6.544-2.763-12.467-7.127-16.72
				c-4.248-4.141-10.042-6.701-16.413-6.701c-5.614,0-47.899,0-53.401,0c-12.915,0-23.475,10.507-23.54,23.421L0,189.674
				c-0.028,5.494,4.404,9.969,9.897,9.997c0.017,0,0.034,0,0.051,0c5.387,0,9.918-4.366,9.946-9.897
				c0.077-15.355,0.302-60.18,0.367-73.078c0.005-1.059,0.867-1.914,1.926-1.911c1.059,0.003,1.915,0.862,1.915,1.921
				c0.001,25.708,0.005,167.204,0.005,167.204c0,6.592,5.344,11.937,11.937,11.937c6.515,0,11.936-5.317,11.936-11.937V188.5h5.154
				v95.41c0,6.586,5.341,11.937,11.937,11.937c6.592,0,11.936-5.345,11.936-11.937c0,0-0.21-89.953-0.216-167.222
				c0-1.15,0.932-2.082,2.082-2.082s2.082,0.932,2.082,2.082c0,0.003,0,0.005,0,0.007c0.111,22.065,0.055,11.084,0.178,35.44
				c0.039,7.828,8.657,12.474,15.209,8.392l29.61-18.458c4.607-2.872,6.112-8.999,3.179-13.704
				C129.082,128.29,129.027,128.222,128.977,128.147z"/>
			<path d="M50.691,86.604c10.478,0,19.124-7.819,20.437-17.939c9.235,0,10.48,0,19.951,0c3.769,0,6.824-3.056,6.824-6.825
				c0-3.769-3.055-6.825-6.824-6.825c-7.989,0-14.973,0-22.938,0c-3.654-5.799-10.105-9.642-17.449-9.642
				c-11.386,0-20.616,9.23-20.616,20.616C30.076,77.373,39.306,86.604,50.691,86.604z"/>
		</g>
	</g>
</g>
<g>
</g>
<g>
</g>
<g>
</g>
<g>
</g>
<g>
</g>
<g>
</g>
<g>
</g>
<g>
</g>
<g>
</g>
<g>
</g>
<g>
</g>
<g>
</g>
<g>
</g>
<g>
</g>
<g>
</g>
</svg>
