<?xml version="1.0" standalone="no"?>
<!DOCTYPE svg PUBLIC "-//W3C//DTD SVG 20010904//EN"
 "http://www.w3.org/TR/2001/REC-SVG-20010904/DTD/svg10.dtd">
<svg version="1.0" xmlns="http://www.w3.org/2000/svg"
 width="1121.000000pt" height="1280.000000pt" viewBox="0 0 1121.000000 1280.000000"
 preserveAspectRatio="xMidYMid meet">
<metadata>
Created by potrace 1.15, written by Peter Selinger 2001-2017
</metadata>
<g transform="translate(0.000000,1280.000000) scale(0.100000,-0.100000)"
fill="#000000" stroke="none">
<path d="M8747 12784 c-218 -34 -383 -112 -531 -253 -76 -72 -252 -296 -312
-397 -107 -181 -248 -524 -319 -774 -81 -285 -133 -721 -122 -1015 8 -197 27
-361 72 -620 19 -110 50 -288 69 -395 59 -337 70 -451 70 -715 0 -308 -28
-498 -105 -707 -114 -312 -248 -450 -604 -623 -461 -224 -874 -344 -1930 -561
-787 -161 -1105 -244 -1615 -421 -489 -170 -734 -278 -1020 -450 -237 -143
-303 -178 -410 -215 l-95 -33 -280 -2 c-306 -2 -399 -13 -580 -64 -267 -75
-615 -248 -878 -437 -84 -60 -157 -133 -157 -156 0 -49 135 -96 277 -96 133 0
245 -18 466 -74 116 -30 262 -62 322 -71 212 -32 484 -100 633 -159 89 -35
363 -178 447 -234 106 -70 257 -227 389 -405 140 -189 168 -235 292 -469 207
-392 316 -530 529 -671 181 -120 331 -174 672 -243 124 -25 269 -58 322 -74
138 -41 189 -48 441 -65 157 -11 272 -24 379 -45 85 -17 156 -32 158 -33 11
-12 -77 -322 -132 -462 -63 -161 -66 -167 -132 -233 -86 -86 -157 -179 -197
-260 -31 -63 -31 -64 -11 -79 28 -20 136 -12 198 15 l47 21 -28 -42 c-41 -58
-72 -123 -72 -146 0 -10 -15 -37 -34 -60 -51 -60 -73 -100 -87 -154 -10 -40
-9 -54 5 -92 35 -90 152 -173 276 -195 73 -13 93 -17 275 -64 130 -34 362 -66
475 -66 57 0 60 -1 76 -32 59 -117 190 -196 394 -238 47 -10 114 -30 150 -44
111 -46 239 -66 412 -66 198 0 360 15 439 40 121 38 217 20 417 -76 73 -36
143 -65 154 -67 57 -6 60 102 7 221 -18 40 -29 75 -26 78 6 6 103 -14 275 -57
93 -24 132 -17 132 21 0 50 -100 201 -180 273 -59 53 -220 135 -335 171 -206
64 -325 78 -656 74 -261 -3 -265 -3 -312 21 -57 28 -107 85 -107 122 0 62 -68
191 -149 284 -56 64 -99 167 -160 383 -62 219 -66 244 -52 306 16 70 95 203
165 275 29 31 67 72 84 91 l30 35 39 -41 c52 -56 99 -70 188 -55 143 25 379
113 605 226 355 176 553 337 833 674 66 80 163 196 213 256 95 113 653 672
1286 1289 197 191 391 389 432 439 218 270 380 595 448 905 30 133 32 425 5
552 -48 223 -138 436 -250 592 -34 48 -139 178 -232 288 -364 432 -586 763
-804 1198 -84 167 -105 224 -241 632 -225 675 -290 960 -290 1267 0 260 35
421 122 564 l41 66 101 6 c176 10 391 68 456 122 9 8 67 15 154 19 78 4 217
20 315 37 272 47 306 49 523 37 223 -12 257 -8 341 49 41 27 58 33 104 33 60
0 95 15 132 54 24 26 24 28 12 94 -18 94 -49 156 -115 234 -78 90 -177 152
-417 259 -242 108 -251 112 -424 214 -260 154 -321 180 -553 241 -114 30 -152
46 -252 103 -127 73 -239 115 -347 131 -93 13 -240 11 -346 -6z m-2904 -10724
c89 -235 107 -341 114 -675 l6 -260 -34 28 c-19 15 -62 46 -95 68 l-62 42 21
71 c30 100 29 271 -2 421 -15 73 -26 170 -31 290 -5 99 -11 196 -15 215 -7 45
46 -64 98 -200z"/>
</g>
</svg>
